<svg width="838" height="607" viewBox="0 0 838 607" fill="none" xmlns="http://www.w3.org/2000/svg">
<path d="M17.722 22.7866C20.4408 22.7866 22.6448 20.5195 22.6448 17.7229C22.6448 14.9263 20.4408 12.6592 17.722 12.6592C15.0032 12.6592 12.7992 14.9263 12.7992 17.7229C12.7992 20.5195 15.0032 22.7866 17.722 22.7866Z" fill="white"/>
<rect width="510" height="318" rx="25" fill="#374151"/>
<path d="M47.2587 22.7866C49.9775 22.7866 52.1815 20.5195 52.1815 17.7229C52.1815 14.9263 49.9775 12.6592 47.2587 12.6592C44.5399 12.6592 42.3359 14.9263 42.3359 17.7229C42.3359 20.5195 44.5399 22.7866 47.2587 22.7866Z" fill="#CCCCCC"/>
<path d="M32.4903 22.7866C35.2091 22.7866 37.4131 20.5195 37.4131 17.7229C37.4131 14.9263 35.2091 12.6592 32.4903 12.6592C29.7716 12.6592 27.5676 14.9263 27.5676 17.7229C27.5676 20.5195 29.7716 22.7866 32.4903 22.7866Z" fill="#CCCCCC"/>
<path d="M691.118 474.583C692.386 473.952 693.501 473.05 694.383 471.942C695.265 470.833 695.893 469.545 696.224 468.167C696.554 466.789 696.579 465.356 696.295 463.968C696.012 462.58 695.427 461.271 694.583 460.133L717.165 335.158L696.092 334.88L680.41 458.464C678.593 460.009 677.405 462.167 677.072 464.529C676.74 466.891 677.285 469.293 678.605 471.279C679.924 473.266 681.927 474.7 684.233 475.309C686.54 475.918 688.989 475.659 691.118 474.583H691.118Z" fill="#A0616A"/>
<path d="M625.715 468.657L617.715 506.657L618.715 591.657H633.715L640.715 508.657L651.715 473.657L625.715 468.657Z" fill="#A0616A"/>
<path d="M675.715 468.657L667.715 506.657L668.715 591.657H683.715L690.715 508.657L701.715 473.657L675.715 468.657Z" fill="#A0616A"/>
<path d="M613.809 589.293L637.428 590.365L636.753 605.237L598.262 603.49C598.351 601.537 598.823 599.62 599.652 597.85C600.482 596.08 601.652 594.49 603.095 593.172C604.539 591.853 606.228 590.832 608.066 590.167C609.904 589.502 611.856 589.205 613.809 589.293Z" fill="#2F2E41"/>
<path d="M663.809 589.293L687.428 590.365L686.753 605.237L648.262 603.49C648.351 601.537 648.823 599.62 649.652 597.85C650.482 596.08 651.652 594.49 653.095 593.172C654.539 591.853 656.228 590.832 658.066 590.167C659.904 589.502 661.856 589.205 663.809 589.293V589.293Z" fill="#2F2E41"/>
<path d="M662.215 282.301C675.78 282.301 686.776 271.305 686.776 257.74C686.776 244.176 675.78 233.179 662.215 233.179C648.65 233.179 637.654 244.176 637.654 257.74C637.654 271.305 648.65 282.301 662.215 282.301Z" fill="#A0616A"/>
<path d="M716.493 318.489C708.366 305.737 681.327 273.962 641.215 300.158C641.215 300.158 650.715 379.658 627.715 422.658C627.715 422.658 680.715 438.658 709.715 423.658C709.715 423.658 699.715 356.658 709.715 343.658C713.05 339.503 715.75 334.877 717.728 329.931C718.423 328.059 718.673 326.05 718.458 324.065C718.244 322.079 717.571 320.17 716.493 318.489V318.489Z" fill="#CCCCCC"/>
<path d="M706.715 317.658L716.529 321.747C717.182 322.019 717.744 322.472 718.149 323.052C718.554 323.633 718.784 324.317 718.814 325.024L719.715 346.658L697.715 344.658L706.715 317.658Z" fill="#CCCCCC"/>
<path d="M631.715 420.658C631.715 420.658 609.715 461.658 613.715 499.658L644.715 504.658L666.715 451.658L661.715 505.658L693.715 506.658C693.715 506.658 714.715 428.658 707.715 421.658L631.715 420.658Z" fill="#2F2E41"/>
<path d="M626.118 464.583C627.386 463.952 628.501 463.05 629.383 461.942C630.265 460.833 630.893 459.545 631.224 458.167C631.554 456.789 631.579 455.356 631.295 453.968C631.012 452.58 630.427 451.271 629.583 450.133L652.165 325.158L631.092 324.88L615.41 448.464C613.593 450.009 612.405 452.167 612.072 454.529C611.74 456.891 612.285 459.293 613.605 461.279C614.924 463.266 616.927 464.7 619.233 465.309C621.54 465.918 623.989 465.659 626.118 464.583H626.118Z" fill="#A0616A"/>
<path d="M650.715 300.658L641.715 299.658C641.715 299.658 633.715 297.658 630.715 308.658C627.715 319.658 627.715 341.658 627.715 341.658L655.715 340.658L650.715 300.658Z" fill="#CCCCCC"/>
<path d="M666.15 269.565C667.032 266.503 666.777 262.36 663.808 261.202C662.262 260.598 660.536 261.074 658.884 261.243C655.653 261.561 652.418 260.67 649.804 258.744C646.733 256.461 644.837 252.972 643.036 249.597L640.312 244.491C639.706 243.426 639.189 242.314 638.766 241.164C637.251 236.657 638.896 231.438 642.265 228.082C645.786 224.807 650.419 222.99 655.228 223C659.999 223.034 664.713 224.044 669.079 225.967C676.84 229.131 683.87 233.853 689.733 239.842C693.565 243.763 697.053 248.869 696.252 254.292C695.629 258.514 692.552 261.894 689.617 264.992L678.973 276.229C677.088 278.219 675.073 280.29 672.441 281.055C669.809 281.82 666.418 280.696 665.7 278.051C665.7 278.051 665.267 272.626 666.15 269.565Z" fill="#2F2E41"/>
<path d="M789 604.559C788.999 604.824 788.894 605.078 788.706 605.266C788.519 605.453 788.265 605.559 788 605.559H500C499.735 605.559 499.48 605.454 499.293 605.266C499.105 605.079 499 604.825 499 604.559C499 604.294 499.105 604.04 499.293 603.852C499.48 603.665 499.735 603.559 500 603.559H788C788.265 603.56 788.519 603.666 788.706 603.853C788.894 604.04 788.999 604.294 789 604.559V604.559Z" fill="#3F3D56"/>
<path d="M380.5 433.5H138.5C136.246 433.497 134.086 432.601 132.492 431.008C130.899 429.414 130.003 427.254 130 425V154C130.003 151.746 130.899 149.586 132.492 147.992C134.086 146.399 136.246 145.503 138.5 145.5H380.5C382.754 145.503 384.914 146.399 386.508 147.992C388.101 149.586 388.997 151.746 389 154V425C388.997 427.254 388.101 429.414 386.508 431.008C384.914 432.601 382.754 433.497 380.5 433.5Z" fill="#6C63FF"/>
<path d="M330.5 331H188.5C185.185 331 182.005 329.683 179.661 327.339C177.317 324.995 176 321.815 176 318.5C176 315.185 177.317 312.005 179.661 309.661C182.005 307.317 185.185 306 188.5 306H330.5C333.815 306 336.995 307.317 339.339 309.661C341.683 312.005 343 315.185 343 318.5C343 321.815 341.683 324.995 339.339 327.339C336.995 329.683 333.815 331 330.5 331V331Z" fill="white"/>
<path d="M330.5 378H188.5C185.185 378 182.005 376.683 179.661 374.339C177.317 371.995 176 368.815 176 365.5C176 362.185 177.317 359.005 179.661 356.661C182.005 354.317 185.185 353 188.5 353H330.5C333.815 353 336.995 354.317 339.339 356.661C341.683 359.005 343 362.185 343 365.5C343 368.815 341.683 371.995 339.339 374.339C336.995 376.683 333.815 378 330.5 378V378Z" fill="white"/>
<path d="M330.5 284.5H188.5C185.185 284.5 182.005 283.183 179.661 280.839C177.317 278.495 176 275.315 176 272C176 268.685 177.317 265.505 179.661 263.161C182.005 260.817 185.185 259.5 188.5 259.5H330.5C333.815 259.5 336.995 260.817 339.339 263.161C341.683 265.505 343 268.685 343 272C343 275.315 341.683 278.495 339.339 280.839C336.995 283.183 333.815 284.5 330.5 284.5V284.5Z" fill="white"/>
<path d="M287 223H232C228.685 223 225.505 221.683 223.161 219.339C220.817 216.995 219.5 213.815 219.5 210.5C219.5 207.185 220.817 204.005 223.161 201.661C225.505 199.317 228.685 198 232 198H287C290.315 198 293.495 199.317 295.839 201.661C298.183 204.005 299.5 207.185 299.5 210.5C299.5 213.815 298.183 216.995 295.839 219.339C293.495 221.683 290.315 223 287 223Z" fill="white"/>
<path d="M465.5 71H53.5C47.701 71 43 75.701 43 81.5V81.5C43 87.299 47.701 92 53.5 92H465.5C471.299 92 476 87.299 476 81.5C476 75.701 471.299 71 465.5 71Z" fill="white"/>
<path d="M510 34H1V36H510V34Z" fill="white"/>
</svg>
